<svg width="22" height="22" viewBox="0 0 22 22" fill="none" xmlns="http://www.w3.org/2000/svg">
<path fill-rule="evenodd" clip-rule="evenodd" d="M11 1.83325C16.0626 1.83325 20.1667 5.93731 20.1667 10.9999C20.1667 16.0625 16.0626 20.1666 11 20.1666C5.9374 20.1666 1.83334 16.0625 1.83334 10.9999C1.83334 5.93731 5.9374 1.83325 11 1.83325ZM11 18.3333C11.1971 18.3333 11.8692 18.1258 12.6011 16.6618C12.8821 16.0998 13.1278 15.4267 13.319 14.6666H8.68102C8.87225 15.4267 9.11788 16.0998 9.39889 16.6618C10.1309 18.1258 10.8029 18.3333 11 18.3333ZM8.35218 12.8333C8.28593 12.2504 8.25001 11.6369 8.25001 10.9999C8.25001 10.3629 8.28593 9.74945 8.35218 9.16658H13.6478C13.7141 9.74945 13.75 10.3629 13.75 10.9999C13.75 11.6369 13.7141 12.2504 13.6478 12.8333H8.35218ZM15.202 14.6666C14.9583 15.7818 14.607 16.7814 14.1741 17.6126C15.5065 16.9719 16.6155 15.9403 17.3523 14.6666H15.202ZM18.1023 12.8333H15.4917C15.5518 12.2409 15.5833 11.6278 15.5833 10.9999C15.5833 10.3721 15.5518 9.75895 15.4917 9.16658H18.1023C18.2531 9.75256 18.3333 10.3669 18.3333 10.9999C18.3333 11.633 18.2531 12.2473 18.1023 12.8333ZM6.50836 12.8333H3.89771C3.74689 12.2473 3.66668 11.633 3.66668 10.9999C3.66668 10.3669 3.74689 9.75256 3.89771 9.16658H6.50836C6.44824 9.75895 6.41668 10.3721 6.41668 10.9999C6.41668 11.6278 6.44824 12.2409 6.50836 12.8333ZM4.64775 14.6666H6.79805C7.04169 15.7818 7.39307 16.7814 7.82588 17.6126C6.49349 16.9719 5.38456 15.9403 4.64775 14.6666ZM8.68102 7.33325H13.319C13.1278 6.5731 12.8821 5.90001 12.6011 5.338C11.8692 3.87405 11.1971 3.66659 11 3.66659C10.8029 3.66659 10.1309 3.87405 9.39889 5.338C9.11788 5.90001 8.87225 6.5731 8.68102 7.33325ZM15.202 7.33325H17.3523C16.6155 6.05951 15.5065 5.02796 14.1741 4.38724C14.607 5.21846 14.9583 6.21801 15.202 7.33325ZM7.82587 4.38724C7.39306 5.21846 7.04168 6.21801 6.79805 7.33325H4.64775C5.38456 6.05951 6.49349 5.02796 7.82587 4.38724Z" fill="#7EC17F"/>
</svg>
