<svg width="22" height="22" viewBox="0 0 22 22" fill="none" xmlns="http://www.w3.org/2000/svg">
<path d="M15 7C15 9.20914 13.2091 11 11 11C8.79087 11 7.00001 9.20914 7.00001 7C7.00001 4.79086 8.79087 3 11 3C13.2091 3 15 4.79086 15 7Z" fill="#262626"/>
<path d="M9.43678 11.7507C8.90294 11.5751 8.31886 11.4952 7.81401 11.742C5.50446 12.8713 3.76108 15.1909 3.19573 18.0124C2.97873 19.0955 3.89543 20 5 20H17C18.1046 20 19.0213 19.0955 18.8043 18.0124C18.2389 15.1909 16.4955 12.8713 14.186 11.742C13.6812 11.4952 13.0971 11.5751 12.5632 11.7507C12.0714 11.9124 11.546 11.9999 11 11.9999C10.4541 11.9999 9.92859 11.9124 9.43678 11.7507Z" fill="#262626"/>
</svg>
